<?xml version="1.0" encoding="UTF-8"?>
<!-- Generated by Pixelmator Pro 3.2.3 -->
<svg width="40" height="40" viewBox="0 0 40 40" xmlns="http://www.w3.org/2000/svg" xmlns:xlink="http://www.w3.org/1999/xlink">
    <path id="Vector" fill="#73c22e" fill-rule="evenodd" stroke="none" d="M 20 39.199219 C 14.907856 39.199219 10.024521 37.176987 6.423828 33.576172 C 2.823012 29.975601 0.800781 25.092266 0.800781 20 C 0.800781 14.907982 2.823012 10.024155 6.423828 6.423828 C 10.024521 2.823013 14.907856 0.798828 20 0.798828 C 22.521355 0.798828 25.018196 1.296875 27.347656 2.261719 C 29.677116 3.226807 31.793343 4.640869 33.576172 6.423828 C 35.359131 8.206291 36.773438 10.323006 37.738281 12.652344 C 38.703247 14.981926 39.199219 17.478767 39.199219 20 C 39.199219 22.521477 38.703247 25.018318 37.738281 27.347656 C 36.773438 29.676994 35.359131 31.793465 33.576172 33.576172 C 31.793343 35.359123 29.677116 36.773197 27.347656 37.738281 C 25.018196 38.703121 22.521355 39.199219 20 39.199219 Z M 12.222656 30 L 27.777344 30 C 28.999382 30 30 28.99902 30 27.777344 L 30 12.220703 C 30 10.999031 28.999382 10 27.777344 10 L 12.222656 10 C 11.000736 10 10 10.999031 10 12.220703 L 10 27.777344 C 10 28.99902 11.000736 30 12.222656 30 Z M 13.005859 28 C 12.449831 28 12 27.550047 12 26.994141 L 12 19 L 14.097656 19 C 14.035767 19.323975 14 19.658203 14 20 C 14 21.591305 14.632692 23.116947 15.757813 24.242188 C 16.883053 25.36743 18.408695 26 20 26 C 21.591305 26 23.116947 25.36743 24.242188 24.242188 C 25.367306 23.116947 26 21.591305 26 20 C 26 19.658203 25.964355 19.323975 25.902344 19 L 28 19 L 28 26.994141 C 28 27.260254 27.893311 27.516357 27.705078 27.705078 C 27.516846 27.893555 27.262573 27.999756 26.996094 28 L 13.005859 28 Z M 20 24 C 18.938845 24.000244 17.920532 23.577881 17.169922 22.828125 C 16.419434 22.077881 15.998413 21.061277 15.998047 20 C 15.997803 18.938967 16.419678 17.920654 17.169922 17.169922 C 17.920044 16.419434 18.936892 15.998291 19.998047 15.998047 C 20.52356 15.998047 21.043823 16.099609 21.529297 16.300781 C 22.014771 16.501709 22.456543 16.796387 22.828125 17.167969 C 23.199707 17.539551 23.494019 17.981689 23.695313 18.466797 C 23.896484 18.952393 23.999878 19.472656 24 19.998047 C 24.000122 20.523682 23.89624 21.043945 23.695313 21.529297 C 23.494385 22.014893 23.199585 22.456299 22.828125 22.828125 C 22.456665 23.199707 22.016724 23.494385 21.53125 23.695313 C 21.045898 23.896729 20.525391 24 20 24 Z M 24.800781 15.798828 C 24.470703 15.798828 24.199219 15.529053 24.197266 15.199219 L 24.197266 12.800781 C 24.197266 12.641357 24.262207 12.488037 24.375 12.375 C 24.487915 12.261963 24.641113 12.199219 24.800781 12.199219 L 27.197266 12.199219 C 27.356934 12.199219 27.510132 12.261963 27.623047 12.375 C 27.735962 12.488037 27.800781 12.641357 27.800781 12.800781 L 27.800781 15.199219 C 27.800293 15.358398 27.73584 15.512451 27.623047 15.625 C 27.510254 15.737549 27.356567 15.798828 27.197266 15.798828 L 24.800781 15.798828 Z"/>
</svg>
