<?xml version="1.0" encoding="UTF-8"?>
<!-- Generated by Pixelmator Pro 3.2.3 -->
<svg width="40" height="40" viewBox="0 0 40 40" xmlns="http://www.w3.org/2000/svg" xmlns:xlink="http://www.w3.org/1999/xlink">
    <path id="Vector" fill="#73c22e" fill-rule="evenodd" stroke="none" d="M -0.000122 20.111572 C -0.000122 30.054688 7.221558 38.323242 16.666504 39.999756 L 16.666504 25.554688 L 11.666504 25.554688 L 11.666504 19.999756 L 16.666504 19.999756 L 16.666504 15.554688 C 16.666504 10.554688 19.888184 7.778076 24.444824 7.778076 C 25.888184 7.778076 27.444824 7.999512 28.888184 8.221436 L 28.888184 13.333252 L 26.333252 13.333252 C 23.888184 13.333252 23.333252 14.554688 23.333252 16.111328 L 23.333252 19.999756 L 28.666504 19.999756 L 27.778198 25.554688 L 23.333252 25.554688 L 23.333252 39.999756 C 32.778198 38.323242 39.999878 30.056396 39.999878 20.111572 C 39.999878 9.049561 30.999878 -0.000244 19.999878 -0.000244 C 8.999878 -0.000244 -0.000122 9.049561 -0.000122 20.111572 Z"/>
</svg>
