<?xml version="1.0" encoding="UTF-8"?>
<!-- Generated by Pixelmator Pro 3.2.3 -->
<svg width="40" height="40" viewBox="0 0 40 40" xmlns="http://www.w3.org/2000/svg" xmlns:xlink="http://www.w3.org/1999/xlink">
    <path id="Vector" fill="#73c22e" fill-rule="evenodd" stroke="none" d="M 20 40 C 14.695684 40 9.608028 37.891354 5.857422 34.140625 C 2.106693 30.390385 0 25.304193 0 20 C 0 14.695562 2.106693 9.60815 5.857422 5.857422 C 9.608028 2.106449 14.695684 0 20 0 C 25.304316 0 30.39185 2.106449 34.142578 5.857422 C 37.893185 9.60815 40 14.695562 40 20 C 40 25.304193 37.893185 30.390385 34.142578 34.140625 C 30.39185 37.891354 25.304316 40 20 40 Z M 25.466797 30.039063 C 25.522871 30.038433 25.579376 30.034592 25.636719 30.029297 C 26.171753 29.979248 26.723877 29.480955 27.003906 27.980469 C 27.666382 24.437992 28.969482 16.764156 29.269531 13.601563 C 29.28772 13.338867 29.278076 13.074951 29.238281 12.814453 C 29.214722 12.604248 29.112793 12.410156 28.953125 12.271484 C 28.725708 12.114502 28.454102 12.033447 28.177734 12.039063 C 27.427734 12.051758 26.269403 12.455568 20.716797 14.765625 C 18.771852 15.575439 14.882807 17.249025 9.052734 19.789063 C 8.107667 20.164063 7.609375 20.534668 7.564453 20.894531 C 7.48938 21.502197 8.25171 21.74292 9.289063 22.070313 L 9.726563 22.207031 C 10.746459 22.539795 12.123292 22.92627 12.835938 22.941406 C 13.485839 22.956055 14.206422 22.692627 15.003906 22.142578 C 20.45141 18.465336 23.264404 16.606689 23.439453 16.566406 C 23.564331 16.536377 23.740479 16.502197 23.855469 16.607422 C 23.973022 16.709961 23.959717 16.906982 23.947266 16.958984 C 23.872314 17.281738 20.879515 20.062014 19.332031 21.501953 C 18.849487 21.951904 18.507446 22.269287 18.4375 22.341797 C 18.283325 22.499268 18.126099 22.654297 17.966797 22.806641 C 17.016846 23.72168 16.306398 24.407227 18.003906 25.527344 C 18.821411 26.067139 19.476318 26.510254 20.128906 26.955078 C 20.838989 27.440186 21.550781 27.922363 22.470703 28.527344 C 22.703247 28.67749 22.927002 28.838867 23.144531 28.994141 C 23.920326 29.547119 24.625671 30.048504 25.466797 30.039063 Z"/>
</svg>
