<?xml version="1.0" encoding="UTF-8"?>
<!-- Generated by Pixelmator Pro 3.2.3 -->
<svg width="40" height="40" viewBox="0 0 40 40" xmlns="http://www.w3.org/2000/svg" xmlns:xlink="http://www.w3.org/1999/xlink">
    <path id="Vector" fill="#73c22e" fill-rule="evenodd" stroke="none" d="M 20 39.199219 C 9.396007 39.199219 0.800781 30.604237 0.800781 20 C 0.800781 9.396252 9.396007 0.800781 20 0.800781 C 30.603992 0.800781 39.199219 9.396252 39.199219 20 C 39.199219 30.604237 30.603992 39.199219 20 39.199219 Z M 25.863281 26.054688 L 28.863281 26.054688 C 29.027344 26.042725 29.508423 25.904785 29.648438 25.628906 C 29.732544 25.462891 29.691528 25.240967 29.521484 24.955078 C 29.517578 24.947021 29.511963 24.932129 29.5 24.916016 C 29.082031 24.137939 27.384766 22.460938 27.384766 22.460938 C 25.818727 20.994875 25.817019 20.896727 27.291016 18.964844 L 28.017578 18.007813 C 29.643675 15.80591 29.748047 15.07959 29.660156 14.841797 C 29.610107 14.691895 29.343018 14.632813 28.955078 14.632813 L 25.394531 14.632813 C 25.30835 14.631592 25.223267 14.6521 25.146484 14.691406 C 25.04248 14.753174 24.953735 14.912842 24.923828 14.964844 C 24.589111 15.842041 24.192017 16.694092 23.734375 17.513672 C 22.250368 20.059568 21.701538 20.060547 21.519531 20.060547 C 21.438843 20.060059 21.359375 20.037109 21.291016 19.994141 C 20.76709 19.648193 20.79248 18.806641 20.8125 18.064453 C 20.8125 17.928467 20.818359 17.799805 20.818359 17.679688 C 20.818359 17.127686 20.835571 16.659912 20.853516 16.246094 C 20.911499 14.788088 20.898193 14.361084 20.238281 14.203125 C 19.912231 14.121094 19.679321 14.062744 18.779297 14.050781 L 18.318359 14.050781 C 17.488403 14.050781 16.651489 14.086182 16.1875 14.318359 C 16.029663 14.397217 15.892578 14.513428 15.789063 14.65625 C 16.045044 14.704102 16.46875 14.83374 16.716797 15.175781 C 17.062744 15.647705 17.064453 16.632324 17.064453 16.726563 C 17.094482 17.226318 17.218994 19.635498 16.542969 20.011719 C 16.457397 20.057861 16.362793 20.083008 16.265625 20.083984 C 15.747682 20.083984 15.100951 19.332518 14.046875 17.480469 C 13.396852 16.344484 13.002441 15.334473 12.894531 15.080078 C 12.80249 14.862061 12.669556 14.615234 12.265625 14.615234 L 9.236328 14.615234 C 8.898315 14.615234 8.588257 14.809814 8.738281 15.171875 C 8.758179 15.223877 11.13721 20.819338 13.78125 23.609375 C 15.941282 25.887205 18.379639 26.050781 18.847656 26.050781 L 20.222656 26.050781 C 20.476807 26.050781 20.835938 25.790039 20.835938 25.333984 C 20.835938 23.874025 21.326904 23.325195 21.710938 23.201172 C 21.772217 23.181396 21.837891 23.171875 21.902344 23.171875 C 22.4104 23.171875 22.914185 23.755615 23.496094 24.431641 C 23.886108 24.885742 24.2854 25.352783 24.691406 25.636719 C 25.21936 26.000732 25.655273 26.054688 25.863281 26.054688 Z"/>
</svg>
