<?xml version="1.0" encoding="UTF-8"?>
<!-- Generated by Pixelmator Pro 3.2.3 -->
<svg width="33" height="32" viewBox="0 0 33 32" xmlns="http://www.w3.org/2000/svg" xmlns:xlink="http://www.w3.org/1999/xlink">
    <path id="Vector" fill="#9965e3" fill-rule="evenodd" stroke="none" d="M 29.998047 31.886719 C 29.467529 31.886475 28.958984 31.677002 28.583984 31.304688 L 20.884766 23.660156 C 20.812744 23.586426 20.749512 23.510986 20.689453 23.431641 C 18.048567 25.355291 14.773876 26.21991 11.519531 25.849609 C 8.264773 25.479248 5.270872 23.901363 3.136719 21.433594 C 1.002566 18.96558 -0.114136 15.789547 0.009766 12.539063 C 0.133545 9.288578 1.488894 6.203367 3.804688 3.902344 C 6.120359 1.601564 9.224368 0.25415 12.498047 0.128906 C 15.771848 0.003906 18.973757 1.109621 21.460938 3.226563 C 23.94824 5.343992 25.538696 8.315189 25.914063 11.546875 C 26.289246 14.77779 25.420231 18.030743 23.484375 20.654297 C 23.565918 20.7146 23.643311 20.779785 23.714844 20.851563 L 31.414063 28.496094 C 31.789063 28.868652 32.000122 29.375488 32 29.902344 C 31.999756 30.428955 31.789307 30.934326 31.414063 31.306641 C 31.038818 31.678955 30.528564 31.886719 29.998047 31.886719 Z M 13.001953 23.943359 C 14.446287 23.943359 15.876466 23.662109 17.210938 23.113281 C 18.54553 22.564453 19.757814 21.760254 20.779297 20.746094 C 21.800657 19.731689 22.611328 18.526123 23.164063 17.201172 C 23.716797 15.875978 24 14.457762 24 13.023438 C 24 10.126713 22.842039 7.347166 20.779297 5.298828 C 18.716433 3.250978 15.919065 2.101563 13.001953 2.101563 C 10.084598 2.101563 7.285521 3.250978 5.222656 5.298828 C 3.159792 7.347166 2.001953 10.126713 2.001953 13.023438 C 2.001953 14.457762 2.286988 15.875978 2.839844 17.201172 C 3.392578 18.526123 4.201295 19.731689 5.222656 20.746094 C 6.244018 21.760254 7.456544 22.564453 8.791016 23.113281 C 10.125609 23.662109 11.557375 23.943359 13.001953 23.943359 Z"/>
</svg>
